#!OML:ASF I:\Actors\actors\Patient Classification 1\Patient 1\Session 1\Subject1.ASF
:FULLY-SPECIFIED
:DEGREES
966
root 0.71276 17.5469 9.20479 6.34774 -5.76246 -9.11931
lowerback 3.3006 2.17381 10.0253
upperback -3.23576 3.48883 0.319039
thorax -4.69065 1.38512 -5.51844
lowerneck -18.5068 -2.99995 -2.15464
upperneck 39.789 -5.99606 4.84728
head 18.2845 -2.04716 1.41861
rclavicle -5.95112e-015 -3.97569e-016
rhumerus -0.702171 78.2705 -65.7043
rradius 109.074
rwrist 10.9879
rhand 19.8202 -22.9855
rfingers 7.12502
rthumb 44.3676 313.27
lclavicle -5.95112e-015 -3.97569e-016
lhumerus -65.5519 -71.5702 115.511
lradius 97.3241
lwrist 62.8588
lhand -16.7464 -14.7588
lfingers 7.12502
lthumb 9.48008 15.0079
rfemur -3.35775 22.2391 26.8757
rtibia 5.60801
rfoot -12.2283 -22.4283
rtoes 5.51956
lfemur 5.27219 -29.0418 -11.5261
ltibia -1.25328
lfoot -13.541 41.0133
ltoes -0.346299
967
root 0.714699 17.5445 9.2068 6.42134 -5.63838 -9.09486
lowerback 3.12061 2.16012 10.1172
upperback -3.21144 3.45061 0.279332
thorax -4.56187 1.37017 -5.59938
lowerneck -18.6029 -3.01487 -2.2328
upperneck 39.8169 -6.02664 4.93248
head 18.3376 -2.05677 1.46622
rclavicle 1.45486e-014 4.77083e-015
rhumerus -2.11362 77.6189 -67.4398
rradius 109.118
rwrist 8.41387
rhand 22.1589 -25.7122
rfingers 7.12502
rthumb 46.5407 311.422
lclavicle 1.45486e-014 4.77083e-015
lhumerus -65.1772 -71.5295 115.277
lradius 97.378
lwrist 62.7696
lhand -16.3063 -14.701
lfingers 7.12502
lthumb 9.90462 15.046
rfemur -3.4329 22.1988 26.8255
rtibia 5.60003
rfoot -12.2425 -22.5151
rtoes 5.51761
lfemur 5.09088 -28.9473 -11.4468
ltibia -1.21747
lfoot -13.3615 40.8372
ltoes -0.740192
968
root 0.711353 17.5464 9.19466 6.23444 -5.60414 -8.82697
lowerback 3.45243 2.12374 9.83479
upperback -3.18529 3.42073 0.195021
thorax -4.73606 1.35518 -5.54597
lowerneck -18.6624 -3.02088 -2.21176
upperneck 39.8134 -6.05386 4.95555
head 18.354 -2.05974 1.46698
rclavicle -7.37988e-015 -1.11319e-014
rhumerus -3.67259 76.9799 -69.2804
rradius 109.075
rwrist 6.31407
rhand 23.7739 -28.6027
rfingers 7.12502
rthumb 48.0332 309.2
lclavicle -7.37988e-015 -1.11319e-014
lhumerus -64.9015 -71.4763 115.144
lradius 97.4845
lwrist 62.7357
lhand -16.2371 -14.7675
lfingers 7.12502
lthumb 9.97142 14.9763
rfemur -3.3215 22.3419 26.5733
rtibia 5.65472
rfoot -12.3415 -22.698
rtoes 5.82079
lfemur 5.14911 -28.9771 -11.7865
ltibia -1.12204
lfoot -13.2605 40.793
ltoes -0.913528
969
root 0.704916 17.5444 9.17229 5.98119 -6.03192 -8.33249
lowerback 4.10326 2.20777 9.09456
upperback -3.20974 3.55798 0.100554
thorax -5.14011 1.42636 -5.27618
lowerneck -18.6482 -3.02277 -2.16499
upperneck 39.7788 -6.06467 4.93555
head 18.3272 -2.06044 1.44612
rclavicle 2.27671e-014 -1.51076e-014
rhumerus -5.66834 76.2853 -71.4244
rradius 109.093
rwrist 4.13915
rhand 25.4051 -31.9121
rfingers 7.12502
rthumb 49.5328 306.623
lclavicle 2.27671e-014 -1.51076e-014
lhumerus -64.7672 -71.3184 115.157
lradius 97.6085
lwrist 62.685
lhand -16.4382 -14.7723
lfingers 7.12502
lthumb 9.7774 14.9807
rfemur -3.35539 22.788 26.0302
rtibia 5.91918
rfoot -12.4107 -22.745
rtoes 6.04413
lfemur 5.45853 -29.1525 -12.527
ltibia -1.11585
lfoot -13.5432 41.2443
ltoes -0.298466
970
root 0.702681 17.5449 9.18066 6.05808 -5.91138 -8.62075
lowerback 3.94272 2.1907 9.28707
upperback -3.22167 3.53655 0.223946
thorax -5.06294 1.41449 -5.24382
lowerneck -18.6436 -3.04251 -2.18546
upperneck 39.7753 -6.0939 4.94934
head 18.3274 -2.07336 1.45015
rclavicle 5.14977e-015 1.15295e-014
rhumerus -7.95783 75.4672 -73.7754
rradius 109.184
rwrist 1.50452
rhand 27.1059 -35.7643
rfingers 7.12502
rthumb 51.0872 303.603
lclavicle 5.14977e-015 1.15295e-014
lhumerus -64.7639 -71.1172 115.335
lradius 97.7206
lwrist 62.5224
lhand -16.6101 -14.7769
lfingers 7.12502
lthumb 9.61155 14.9838
rfemur -3.31458 22.7514 26.3975
rtibia 5.86741
rfoot -12.4195 -22.8018
rtoes 5.85712
lfemur 5.47471 -29.137 -12.1707
ltibia -1.22413
lfoot -13.4374 41.1748
ltoes -0.414921
971
root 0.705487 17.5433 9.19714 6.25602 -5.54193 -8.93977
lowerback 3.51252 2.12045 9.63884
upperback -3.2515 3.42234 0.333651
thorax -4.85753 1.35686 -5.29565
lowerneck -18.6382 -3.0921 -2.23549
upperneck 39.7882 -6.17104 4.98832
head 18.3433 -2.10616 1.46173
rclavicle -3.58434e-014 -5.96354e-015
rhumerus -10.4603 74.5027 -76.3266
rradius 109.26
rwrist -1.50485
rhand 28.2859 -39.98
rfingers 7.12502
rthumb 52.1595 300.01
lclavicle -3.58434e-014 -5.96354e-015
lhumerus -64.7102 -70.9616 115.469
lradius 97.8576
lwrist 62.5313
lhand -16.6628 -14.834
lfingers 7.12502
lthumb 9.56072 14.929
rfemur -3.31758 22.5337 26.7567
rtibia 5.70859
rfoot -12.4868 -22.8992
rtoes 5.8681
lfemur 5.23025 -29.0546 -11.659
ltibia -1.25361
lfoot -13.169 40.856
ltoes -0.843224
